<?xml version="1.0" encoding="utf-8"?>
<!-- Generator: Adobe Illustrator 25.0.1, SVG Export Plug-In . SVG Version: 6.00 Build 0)  -->
<svg version="1.1" id="Layer_1" xmlns="http://www.w3.org/2000/svg" xmlns:xlink="http://www.w3.org/1999/xlink" x="0px" y="0px"
	 width="3252px" height="769px" viewBox="0 0 3252 769" style="enable-background:new 0 0 3252 769;" xml:space="preserve">
<style type="text/css">
	.st0{fill:#667085;}
	.st1{fill:#121576;}
	.st2{fill:#F36076;}
</style>
<path class="st0" d="M79.8,735.3H32.3V631.2h46.4c18.1,0,29.2,10.9,29.2,26.5c0,13.1-8.7,21.9-18.3,23.9
	c11.1,1.7,20.3,13.1,20.3,25.6C109.9,723.9,98.8,735.3,79.8,735.3z M76.5,676.3c11.7,0,18-7.2,18-16.7c0-9.4-6.2-16.9-18-16.9H45.3
	v33.6H76.5z M77.3,723.8c12,0,19.2-6.9,19.2-18c0-9.5-6.6-18-19.2-18h-32v35.9H77.3z M169,735.3h-13v-44L115,631.2h15.1l32.3,48.4
	l32.3-48.4h15.1L169,691.3V735.3z M313.3,737.2c-30,0-53.6-21.9-53.6-53.9c0-32,23.6-53.9,53.6-53.9c18.4,0,31.2,8.7,39.5,20.6
	l-10.8,6.1c-5.9-8.9-16.9-15.1-28.7-15.1c-22.8,0-40.1,17.3-40.1,42.3c0,24.7,17.3,42.3,40.1,42.3c11.9,0,22.8-6.4,28.7-15.1
	l10.9,5.9C344.2,728.5,331.7,737.2,313.3,737.2z M416.9,737.2c-30.8,0-51.7-23.1-51.7-53.9s20.9-53.9,51.7-53.9
	c30.8,0,51.8,23.1,51.8,53.9S447.7,737.2,416.9,737.2z M416.9,725.7c23.3,0,38.4-18.1,38.4-42.3c0-24.4-15.1-42.3-38.4-42.3
	c-23.4,0-38.3,18-38.3,42.3C378.7,707.5,393.5,725.7,416.9,725.7z M538.2,737.4c-29.7,0-53.6-21.7-53.6-54
	c0-32.5,23.9-53.9,53.6-53.9c18.6,0,31.4,8.1,40.4,19.4l-10.3,6.6c-6.6-8.4-17.6-14.4-30.1-14.4c-22.8,0-40.1,17.3-40.1,42.3
	c0,24.7,17.3,42.3,40.1,42.3c12.5,0,22.8-5.9,28.1-11.2v-21.1h-35.9v-11.6h48.7v37.5C569.4,730.2,555.2,737.4,538.2,737.4z
	 M686.3,735.3h-12.5l-60.7-83.1v83.1h-13V631.2h13.3l60,81.4v-81.4h13V735.3z M723.7,735.3h-13V631.2h13V735.3z M786.8,735.3h-13
	v-92.6h-32.9v-11.6h79v11.6h-33.1V735.3z M850.1,735.3h-13V631.2h13V735.3z M921.8,735.3h-16.1l-42-104.1h14.8l35.1,89.9l35.1-89.9
	h14.8L921.8,735.3z M1045.5,735.3h-68.2V631.2h68.2v11.6h-55.3v33.6h54.2v11.6h-54.2v35.9h55.3V735.3z M1193.4,735.3h-13v-47.8
	h-60.9v47.8h-13V631.2h13V676h60.9v-44.8h13V735.3z M1285.9,735.3h-68.2V631.2h68.2v11.6h-55.3v33.6h54.2v11.6h-54.2v35.9h55.3
	V735.3z M1395.8,735.3h-14.8l-9.2-23.3h-51.8l-9.2,23.3h-14.8l42-104.1h16.1L1395.8,735.3z M1368,700.7l-22.2-56.2l-22,56.2H1368z
	 M1469,735.3h-61.4V631.2h13v92.6h48.4V735.3z M1509.6,735.3h-13v-92.6h-32.9v-11.6h79v11.6h-33.1V735.3z M1646.7,735.3h-13v-47.8
	h-60.9v47.8h-13V631.2h13V676h60.9v-44.8h13V735.3z M1720.4,737.2c-30,0-53.6-21.9-53.6-53.9c0-32,23.6-53.9,53.6-53.9
	c18.4,0,31.2,8.7,39.5,20.6l-10.8,6.1c-5.9-8.9-16.9-15.1-28.7-15.1c-22.8,0-40.1,17.3-40.1,42.3c0,24.7,17.3,42.3,40.1,42.3
	c11.9,0,22.8-6.4,28.7-15.1l10.9,5.9C1751.3,728.5,1738.8,737.2,1720.4,737.2z M1865.3,735.3h-14.8l-9.2-23.3h-51.8l-9.2,23.3h-14.8
	l42-104.1h16.1L1865.3,735.3z M1837.5,700.7l-22.2-56.2l-22,56.2H1837.5z M1954.5,735.3h-15.3l-26.4-41.4h-20.9v41.4h-13V631.2h41.8
	c19.1,0,32.8,12.2,32.8,31.4c0,18.7-13,29-27.2,30.3L1954.5,735.3z M1919.2,682.6c12.3,0,20.9-8.3,20.9-20
	c0-11.9-8.6-19.8-20.9-19.8h-27.3v39.8H1919.2z M2042.3,735.3H1974V631.2h68.2v11.6H1987v33.6h54.2v11.6H1987v35.9h55.3V735.3z
	 M2116.3,735.3h-13V631.2h13V735.3z M2226.9,735.3h-12.5l-60.7-83.1v83.1h-13V631.2h13.3l60,81.4v-81.4h13V735.3z M2290,735.3h-13
	v-92.6h-32.9v-11.6h79v11.6H2290V735.3z M2408.5,735.3h-68.2V631.2h68.2v11.6h-55.3v33.6h54.2v11.6h-54.2v35.9h55.3V735.3z
	 M2504.8,735.3h-15.3l-26.4-41.4h-20.9v41.4h-13V631.2h41.9c19.1,0,32.8,12.2,32.8,31.4c0,18.7-13,29-27.2,30.3L2504.8,735.3z
	 M2469.5,682.6c12.3,0,20.9-8.3,20.9-20c0-11.9-8.6-19.8-20.9-19.8h-27.3v39.8H2469.5z M2610.5,735.3h-12.5l-60.7-83.1v83.1h-13
	V631.2h13.3l60,81.4v-81.4h13V735.3z M2724.1,735.3h-14.8l-9.2-23.3h-51.8l-9.2,23.3h-14.8l42-104.1h16.1L2724.1,735.3z
	 M2696.3,700.7l-22.2-56.2l-22,56.2H2696.3z M2765.9,735.3h-13v-92.6H2720v-11.6h79v11.6h-33.1V735.3z M2829.2,735.3h-13V631.2h13
	V735.3z M2901,737.2c-30.8,0-51.7-23.1-51.7-53.9s20.9-53.9,51.7-53.9s51.8,23.1,51.8,53.9S2931.8,737.2,2901,737.2z M2901,725.7
	c23.3,0,38.4-18.1,38.4-42.3c0-24.4-15.1-42.3-38.4-42.3c-23.4,0-38.2,18-38.2,42.3C2862.8,707.5,2877.6,725.7,2901,725.7z
	 M3059.1,735.3h-12.5l-60.7-83.1v83.1h-13V631.2h13.3l60,81.4v-81.4h13V735.3z M3172.7,735.3h-14.8l-9.2-23.3h-51.8l-9.2,23.3h-14.8
	l42-104.1h16.1L3172.7,735.3z M3144.9,700.7l-22.2-56.2l-22,56.2H3144.9z M3245.9,735.3h-61.4V631.2h13v92.6h48.4V735.3z"/>
<path class="st1" d="M90,398H28.5V109.5h135c62.7,0,96.9,42.4,96.9,93c0,50.2-34.6,93-96.9,93H90V398z M155.3,241.4
	c24.2,0,42.4-15.1,42.4-38.9c0-24.2-18.2-38.9-42.4-38.9H90v77.9H155.3z M332.6,398h-54.9V189.1h54.9v28.5
	c14.7-18.6,40.7-33.7,66.6-33.7v53.6c-3.9-0.9-9.1-1.3-15.1-1.3c-18.2,0-42.4,10.4-51.5,23.8V398z M511,403.2
	c-68.8,0-110.3-50.2-110.3-109.9c0-59.3,41.5-109.4,110.3-109.4c69.2,0,110.7,50.2,110.7,109.4C621.7,353,580.2,403.2,511,403.2z
	 M511,354.3c34.2,0,53.6-28.1,53.6-61c0-32.4-19.5-60.6-53.6-60.6c-34.2,0-53.2,28.1-53.2,60.6C457.8,326.2,476.8,354.3,511,354.3z
	 M823.4,398h-54.9v-21.6c-14.3,16.9-38.9,26.8-66.2,26.8c-33.3,0-72.7-22.5-72.7-69.2c0-48.9,39.4-67.5,72.7-67.5
	c27.7,0,52.3,9.1,66.2,25.5v-28.1c0-21.2-18.2-35-45.8-35c-22.5,0-43.3,8.2-61,24.7l-20.8-36.8c25.5-22.5,58.4-32.9,91.3-32.9
	c47.6,0,91.3,19,91.3,79.2V398z M724.3,366c17.7,0,35-6.1,44.1-18.2v-26c-9.1-12.1-26.4-18.2-44.1-18.2c-21.6,0-39.4,11.2-39.4,31.6
	C685,354.7,702.7,366,724.3,366z M955.7,403.2c-64.4,0-110.7-45.4-110.7-109.9c0-64,46.3-109.4,110.7-109.4
	c42.8,0,68.8,18.6,82.6,37.6l-35.9,33.7c-10-14.7-25.1-22.5-44.1-22.5c-33.3,0-56.7,24.2-56.7,60.6s23.4,61,56.7,61
	c19,0,34.2-8.7,44.1-22.5l35.9,33.3C1024.5,384.6,998.5,403.2,955.7,403.2z M1124.8,403.2c-38.5,0-59.3-19.9-59.3-57.1v-109H1031
	v-48h34.6V132h55.4v57.1h42.4v48h-42.4v94.3c0,13,6.9,22.9,19,22.9c8.2,0,16-3,19-6.1l11.7,41.5
	C1162.5,397.1,1147.8,403.2,1124.8,403.2z M1208.7,166.6c-17.7,0-32.9-14.7-32.9-32.9c0-18.2,15.1-32.4,32.9-32.4
	c18.2,0,32.9,14.3,32.9,32.4C1241.6,151.9,1226.9,166.6,1208.7,166.6z M1236.4,398h-54.9V189.1h54.9V398z M1384.7,398h-59.3
	l-83.9-208.9h58.8l54.5,145.3l54.5-145.3h59.2L1384.7,398z M1571.9,403.2c-63.6,0-111.6-42.8-111.6-109.9
	c0-60.6,44.6-109.4,108.1-109.4c62.3,0,104.7,46.7,104.7,115.1v12.1h-155.3c3.5,26.4,24.7,48.4,60.1,48.4c17.7,0,42.4-7.8,55.8-20.8
	l24.2,35.5C1637.2,393.2,1604.3,403.2,1571.9,403.2z M1619.9,273.9c-1.3-19.9-15.1-46.3-51.5-46.3c-34.2,0-48.9,25.5-51.5,46.3
	H1619.9z"/>
<path class="st2" d="M1963.2,398h-65.3l-50.6-198.1L1797.1,398h-65.3l-82.6-288.5h68.8l50.6,208.5l54.9-208.5h48L1926,318
	l50.2-208.5h69.2L1963.2,398z M2134.4,403.2c-63.6,0-111.6-42.8-111.6-109.9c0-60.6,44.5-109.4,108.1-109.4
	c62.3,0,104.7,46.7,104.7,115.1v12.1h-155.3c3.5,26.4,24.7,48.4,60.1,48.4c17.7,0,42.4-7.8,55.8-20.8l24.2,35.5
	C2199.8,393.2,2166.9,403.2,2134.4,403.2z M2182.5,273.9c-1.3-19.9-15.1-46.3-51.5-46.3c-34.2,0-48.9,25.5-51.5,46.3H2182.5z
	 M2310.8,398h-54.9V109.5h54.9V398z M2400.7,398h-54.9V109.5h54.9V398z M2631.7,398h-54.9V271.7c0-29-15.1-38.9-38.5-38.9
	c-21.6,0-38.5,12.1-47.6,24.7V398h-54.9V189.1h54.9v27.2c13.4-16,38.9-32.4,73.1-32.4c45.8,0,67.9,26,67.9,66.6V398z M2764.9,403.2
	c-63.6,0-111.6-42.8-111.6-109.9c0-60.6,44.5-109.4,108.1-109.4c62.3,0,104.7,46.7,104.7,115.1v12.1h-155.3
	c3.5,26.4,24.7,48.4,60.1,48.4c17.7,0,42.4-7.8,55.8-20.8l24.2,35.5C2830.3,393.2,2797.4,403.2,2764.9,403.2z M2813,273.9
	c-1.3-19.9-15.1-46.3-51.5-46.3c-34.2,0-48.9,25.5-51.5,46.3H2813z M2961.6,403.2c-36.3,0-71.4-12.1-93.4-32.4l23.8-38.5
	c15.1,14.3,46.3,28.5,72.2,28.5c23.8,0,35-9.5,35-22.5c0-34.6-124.1-6.5-124.1-88.7c0-35,30.7-65.7,85.6-65.7
	c35.5,0,63.6,12.1,84.4,28.5l-22.1,37.6c-12.5-13.4-36.3-24.2-61.9-24.2c-19.9,0-32.9,9.1-32.9,20.8c0,31.1,123.7,5.2,123.7,89.5
	C3052,374.2,3019.6,403.2,2961.6,403.2z M3148.3,403.2c-36.3,0-71.4-12.1-93.4-32.4l23.8-38.5c15.1,14.3,46.3,28.5,72.2,28.5
	c23.8,0,35-9.5,35-22.5c0-34.6-124.1-6.5-124.1-88.7c0-35,30.7-65.7,85.6-65.7c35.5,0,63.6,12.1,84.3,28.5l-22.1,37.6
	c-12.6-13.4-36.3-24.2-61.9-24.2c-19.9,0-32.9,9.1-32.9,20.8c0,31.1,123.7,5.2,123.7,89.5C3238.7,374.2,3206.3,403.2,3148.3,403.2z"
	/>
<path class="st1" d="M1721,553.5c-0.9,0-1.9-0.2-2.7-0.5c-2.3-0.9-4.1-2.9-4.6-5.3l-24.6-107.3l-102.7,61.1
	c-1.2,0.7-2.5,1.1-3.9,1.1H19.8c-4.2,0-7.5-3.4-7.5-7.5s3.4-7.5,7.5-7.5h1560.6l109.8-65.3c2.1-1.2,4.6-1.4,6.8-0.5
	c2.2,0.9,3.8,2.9,4.4,5.2l24.5,106.6l65.2-44.8c1.3-0.9,2.7-1.3,4.3-1.3H3244c4.2,0,7.5,3.4,7.5,7.5s-3.4,7.5-7.5,7.5H1797.8
	l-72.5,49.7C1724,553,1722.6,553.5,1721,553.5z"/>
</svg>
